<?xml version="1.0" encoding="UTF-8"?>
<svg xmlns="http://www.w3.org/2000/svg" viewBox="0 0 64 64">
  <defs>
    <linearGradient id="leafGradient" x1="0%" y1="0%" x2="100%" y2="100%">
      <stop offset="0%" style="stop-color:#48bb78"/>
      <stop offset="100%" style="stop-color:#2f855a"/>
    </linearGradient>
    <linearGradient id="leafVein" x1="0%" y1="0%" x2="0%" y2="100%">
      <stop offset="0%" style="stop-color:#68d391"/>
      <stop offset="100%" style="stop-color:#38a169"/>
    </linearGradient>
  </defs>
  
  <!-- Leaf Shape -->
  <path d="M32 8 C32 8 8 20 8 36 C8 48 16 56 32 56 C48 56 56 48 56 36 C56 20 32 8 32 8 Z" fill="url(#leafGradient)"/>
  
  <!-- Leaf Vein -->
  <path d="M32 12 L32 52" stroke="url(#leafVein)" stroke-width="2" stroke-linecap="round"/>
  
  <!-- Side Veins -->
  <path d="M32 20 L22 24" stroke="url(#leafVein)" stroke-width="1.5" stroke-linecap="round"/>
  <path d="M32 20 L42 24" stroke="url(#leafVein)" stroke-width="1.5" stroke-linecap="round"/>
  <path d="M32 28 L20 34" stroke="url(#leafVein)" stroke-width="1.5" stroke-linecap="round"/>
  <path d="M32 28 L44 34" stroke="url(#leafVein)" stroke-width="1.5" stroke-linecap="round"/>
  <path d="M32 36 L18 44" stroke="url(#leafVein)" stroke-width="1.5" stroke-linecap="round"/>
  <path d="M32 36 L46 44" stroke="url(#leafVein)" stroke-width="1.5" stroke-linecap="round"/>
  
  <!-- Highlight -->
  <ellipse cx="28" cy="24" rx="4" ry="6" fill="rgba(255,255,255,0.3)"/>
</svg>
