<svg xmlns="http://www.w3.org/2000/svg" viewBox="0 0 200 200"><defs><linearGradient id="g" x1="0%" y1="0%" x2="100%" y2="100%"><stop offset="0%" stop-color="#bc822a"/><stop offset="50%" stop-color="#ba8636"/><stop offset="100%" stop-color="#9c640a"/></linearGradient><linearGradient id="g2" x1="0%" y1="0%" x2="100%" y2="100%"><stop offset="0%" stop-color="#dcb374"/><stop offset="100%" stop-color="#ba8636"/></linearGradient><linearGradient id="g3" x1="0%" y1="0%" x2="100%" y2="100%"><stop offset="0%" stop-color="#fefefe"/><stop offset="100%" stop-color="#f0f0f0"/></linearGradient><filter id="s" x="-20%" y="-20%" width="140%" height="140%"><feDropShadow dx="0" dy="2" stdDeviation="3" flood-opacity="0.25"/></filter></defs><rect width="200" height="200" fill="#000"/><g transform="translate(100,100)" filter="url(#s)"><g fill="url(#g)"><path d="M0,-10 Q-4,-8 -5,-4 Q-4,0 0,2 Q4,0 5,-4 Q4,-8 0,-10" transform="rotate(0)"/><path d="M0,-10 Q-4,-8 -5,-4 Q-4,0 0,2 Q4,0 5,-4 Q4,-8 0,-10" transform="rotate(72)"/><path d="M0,-10 Q-4,-8 -5,-4 Q-4,0 0,2 Q4,0 5,-4 Q4,-8 0,-10" transform="rotate(144)"/><path d="M0,-10 Q-4,-8 -5,-4 Q-4,0 0,2 Q4,0 5,-4 Q4,-8 0,-10" transform="rotate(216)"/><path d="M0,-10 Q-4,-8 -5,-4 Q-4,0 0,2 Q4,0 5,-4 Q4,-8 0,-10" transform="rotate(288)"/></g><g fill="url(#g2)"><path d="M0,-6 Q-3,-5 -3,-2 Q-2,1 0,1 Q2,1 3,-2 Q3,-5 0,-6" transform="rotate(36)"/><path d="M0,-6 Q-3,-5 -3,-2 Q-2,1 0,1 Q2,1 3,-2 Q3,-5 0,-6" transform="rotate(108)"/><path d="M0,-6 Q-3,-5 -3,-2 Q-2,1 0,1 Q2,1 3,-2 Q3,-5 0,-6" transform="rotate(180)"/><path d="M0,-6 Q-3,-5 -3,-2 Q-2,1 0,1 Q2,1 3,-2 Q3,-5 0,-6" transform="rotate(252)"/><path d="M0,-6 Q-3,-5 -3,-2 Q-2,1 0,1 Q2,1 3,-2 Q3,-5 0,-6" transform="rotate(324)"/></g><circle cx="0" cy="0" r="3" fill="url(#g3)"/><circle cx="0" cy="0" r="2" fill="url(#g)"/></g></svg>
